<mxfile host="app.diagrams.net" modified="2024-03-28T09:13:33.033Z" agent="Mozilla/5.0 (Windows NT 10.0; Win64; x64) AppleWebKit/537.36 (KHTML, like Gecko) Chrome/109.0.0.0 Safari/537.36 SLBrowser/9.0.3.1311 SLBChan/11" etag="3REQDUHAdoAQ6TBN40-A" version="24.2.0" type="github">
  <diagram name="第 1 页" id="8jwr1yB68v9hcRnRHFLA">
    <mxGraphModel dx="1723" dy="1830" grid="1" gridSize="10" guides="1" tooltips="1" connect="1" arrows="1" fold="1" page="1" pageScale="1" pageWidth="850" pageHeight="1100" math="0" shadow="0">
      <root>
        <mxCell id="0" />
        <mxCell id="1" parent="0" />
        <mxCell id="xDn7OaBj2y6qqKKTSdad-1" value="用户" style="swimlane;fontStyle=1;align=center;verticalAlign=top;childLayout=stackLayout;horizontal=1;startSize=26;horizontalStack=0;resizeParent=1;resizeParentMax=0;resizeLast=0;collapsible=1;marginBottom=0;whiteSpace=wrap;html=1;" parent="1" vertex="1">
          <mxGeometry x="90" y="-70" width="160" height="220" as="geometry">
            <mxRectangle x="210" y="160" width="100" height="30" as="alternateBounds" />
          </mxGeometry>
        </mxCell>
        <mxCell id="xDn7OaBj2y6qqKKTSdad-2" value="id: String&lt;div&gt;name:String&lt;/div&gt;&lt;div&gt;family:List&lt;/div&gt;&lt;div&gt;email:String&lt;/div&gt;&lt;div&gt;phoneno:String&lt;/div&gt;&lt;div&gt;habbit:Habit&lt;/div&gt;&lt;div&gt;&lt;br&gt;&lt;/div&gt;&lt;div&gt;&lt;br&gt;&lt;/div&gt;&lt;div&gt;&lt;div&gt;&lt;br&gt;&lt;/div&gt;&lt;/div&gt;" style="text;strokeColor=none;fillColor=none;align=left;verticalAlign=top;spacingLeft=4;spacingRight=4;overflow=hidden;rotatable=0;points=[[0,0.5],[1,0.5]];portConstraint=eastwest;whiteSpace=wrap;html=1;" parent="xDn7OaBj2y6qqKKTSdad-1" vertex="1">
          <mxGeometry y="26" width="160" height="94" as="geometry" />
        </mxCell>
        <mxCell id="xDn7OaBj2y6qqKKTSdad-3" value="" style="line;strokeWidth=1;fillColor=none;align=left;verticalAlign=middle;spacingTop=-1;spacingLeft=3;spacingRight=3;rotatable=0;labelPosition=right;points=[];portConstraint=eastwest;strokeColor=inherit;" parent="xDn7OaBj2y6qqKKTSdad-1" vertex="1">
          <mxGeometry y="120" width="160" height="8" as="geometry" />
        </mxCell>
        <mxCell id="xDn7OaBj2y6qqKKTSdad-4" value="initHabit()&lt;div&gt;retrieve()&lt;/div&gt;&lt;div&gt;control()&lt;/div&gt;&lt;div&gt;consult()&lt;/div&gt;&lt;div&gt;remark()&lt;/div&gt;" style="text;strokeColor=none;fillColor=none;align=left;verticalAlign=top;spacingLeft=4;spacingRight=4;overflow=hidden;rotatable=0;points=[[0,0.5],[1,0.5]];portConstraint=eastwest;whiteSpace=wrap;html=1;" parent="xDn7OaBj2y6qqKKTSdad-1" vertex="1">
          <mxGeometry y="128" width="160" height="92" as="geometry" />
        </mxCell>
        <mxCell id="xDn7OaBj2y6qqKKTSdad-5" value="后台管理员" style="swimlane;fontStyle=1;align=center;verticalAlign=top;childLayout=stackLayout;horizontal=1;startSize=26;horizontalStack=0;resizeParent=1;resizeParentMax=0;resizeLast=0;collapsible=1;marginBottom=0;whiteSpace=wrap;html=1;" parent="1" vertex="1">
          <mxGeometry x="970" y="220" width="180" height="190" as="geometry">
            <mxRectangle x="620" y="300" width="210" height="30" as="alternateBounds" />
          </mxGeometry>
        </mxCell>
        <mxCell id="xDn7OaBj2y6qqKKTSdad-6" value="id:String&lt;div&gt;name:String&lt;/div&gt;&lt;div&gt;password:String&lt;/div&gt;&lt;div&gt;email:String&lt;/div&gt;" style="text;strokeColor=none;fillColor=none;align=left;verticalAlign=top;spacingLeft=4;spacingRight=4;overflow=hidden;rotatable=0;points=[[0,0.5],[1,0.5]];portConstraint=eastwest;whiteSpace=wrap;html=1;" parent="xDn7OaBj2y6qqKKTSdad-5" vertex="1">
          <mxGeometry y="26" width="180" height="74" as="geometry" />
        </mxCell>
        <mxCell id="xDn7OaBj2y6qqKKTSdad-7" value="" style="line;strokeWidth=1;fillColor=none;align=left;verticalAlign=middle;spacingTop=-1;spacingLeft=3;spacingRight=3;rotatable=0;labelPosition=right;points=[];portConstraint=eastwest;strokeColor=inherit;" parent="xDn7OaBj2y6qqKKTSdad-5" vertex="1">
          <mxGeometry y="100" width="180" height="8" as="geometry" />
        </mxCell>
        <mxCell id="xDn7OaBj2y6qqKKTSdad-8" value="login()&lt;div&gt;analyse(data:HashMap):Result&lt;/div&gt;&lt;div&gt;sendMessage(result:Result)&lt;/div&gt;" style="text;strokeColor=none;fillColor=none;align=left;verticalAlign=top;spacingLeft=4;spacingRight=4;overflow=hidden;rotatable=0;points=[[0,0.5],[1,0.5]];portConstraint=eastwest;whiteSpace=wrap;html=1;" parent="xDn7OaBj2y6qqKKTSdad-5" vertex="1">
          <mxGeometry y="108" width="180" height="82" as="geometry" />
        </mxCell>
        <mxCell id="xDn7OaBj2y6qqKKTSdad-9" value="智能设备" style="swimlane;fontStyle=1;align=center;verticalAlign=top;childLayout=stackLayout;horizontal=1;startSize=26;horizontalStack=0;resizeParent=1;resizeParentMax=0;resizeLast=0;collapsible=1;marginBottom=0;whiteSpace=wrap;html=1;" parent="1" vertex="1">
          <mxGeometry x="260" y="580" width="160" height="240" as="geometry">
            <mxRectangle x="240" y="410" width="100" height="30" as="alternateBounds" />
          </mxGeometry>
        </mxCell>
        <mxCell id="xDn7OaBj2y6qqKKTSdad-10" value="id:String&lt;div&gt;name:String&lt;/div&gt;&lt;div&gt;type:Erum&lt;/div&gt;&lt;div&gt;unit:Erum&lt;/div&gt;&lt;div&gt;unitprice:double&lt;/div&gt;&lt;div&gt;coverArea:double&lt;/div&gt;&lt;div&gt;powerConsum:double&lt;/div&gt;&lt;div&gt;component:List&lt;/div&gt;" style="text;strokeColor=none;fillColor=none;align=left;verticalAlign=top;spacingLeft=4;spacingRight=4;overflow=hidden;rotatable=0;points=[[0,0.5],[1,0.5]];portConstraint=eastwest;whiteSpace=wrap;html=1;" parent="xDn7OaBj2y6qqKKTSdad-9" vertex="1">
          <mxGeometry y="26" width="160" height="134" as="geometry" />
        </mxCell>
        <mxCell id="xDn7OaBj2y6qqKKTSdad-11" value="" style="line;strokeWidth=1;fillColor=none;align=left;verticalAlign=middle;spacingTop=-1;spacingLeft=3;spacingRight=3;rotatable=0;labelPosition=right;points=[];portConstraint=eastwest;strokeColor=inherit;" parent="xDn7OaBj2y6qqKKTSdad-9" vertex="1">
          <mxGeometry y="160" width="160" height="8" as="geometry" />
        </mxCell>
        <mxCell id="xDn7OaBj2y6qqKKTSdad-12" value="detect()&lt;div&gt;control()&lt;/div&gt;&lt;div&gt;transmit()&lt;/div&gt;&lt;div&gt;feedback()&lt;br&gt;&lt;div&gt;&lt;br&gt;&lt;/div&gt;&lt;/div&gt;" style="text;strokeColor=none;fillColor=none;align=left;verticalAlign=top;spacingLeft=4;spacingRight=4;overflow=hidden;rotatable=0;points=[[0,0.5],[1,0.5]];portConstraint=eastwest;whiteSpace=wrap;html=1;" parent="xDn7OaBj2y6qqKKTSdad-9" vertex="1">
          <mxGeometry y="168" width="160" height="72" as="geometry" />
        </mxCell>
        <mxCell id="xDn7OaBj2y6qqKKTSdad-13" value="传感器" style="swimlane;fontStyle=1;align=center;verticalAlign=top;childLayout=stackLayout;horizontal=1;startSize=26;horizontalStack=0;resizeParent=1;resizeParentMax=0;resizeLast=0;collapsible=1;marginBottom=0;whiteSpace=wrap;html=1;" parent="1" vertex="1">
          <mxGeometry x="720" y="586" width="160" height="228" as="geometry">
            <mxRectangle x="240" y="520" width="100" height="30" as="alternateBounds" />
          </mxGeometry>
        </mxCell>
        <mxCell id="xDn7OaBj2y6qqKKTSdad-14" value="id: String&lt;div&gt;name:String&lt;/div&gt;&lt;div&gt;type:Erum&lt;/div&gt;&lt;div&gt;unit:Erum&lt;/div&gt;&lt;div&gt;unitprice:double&lt;/div&gt;&lt;div&gt;productdate:Date&lt;/div&gt;&lt;div&gt;expiredate:Date&lt;br&gt;&lt;div&gt;&lt;br&gt;&lt;/div&gt;&lt;/div&gt;" style="text;strokeColor=none;fillColor=none;align=left;verticalAlign=top;spacingLeft=4;spacingRight=4;overflow=hidden;rotatable=0;points=[[0,0.5],[1,0.5]];portConstraint=eastwest;whiteSpace=wrap;html=1;" parent="xDn7OaBj2y6qqKKTSdad-13" vertex="1">
          <mxGeometry y="26" width="160" height="114" as="geometry" />
        </mxCell>
        <mxCell id="xDn7OaBj2y6qqKKTSdad-15" value="" style="line;strokeWidth=1;fillColor=none;align=left;verticalAlign=middle;spacingTop=-1;spacingLeft=3;spacingRight=3;rotatable=0;labelPosition=right;points=[];portConstraint=eastwest;strokeColor=inherit;" parent="xDn7OaBj2y6qqKKTSdad-13" vertex="1">
          <mxGeometry y="140" width="160" height="8" as="geometry" />
        </mxCell>
        <mxCell id="xDn7OaBj2y6qqKKTSdad-16" value="detect()&lt;div&gt;control()&lt;/div&gt;&lt;div&gt;transmit()&lt;/div&gt;&lt;div&gt;feedback()&lt;/div&gt;" style="text;strokeColor=none;fillColor=none;align=left;verticalAlign=top;spacingLeft=4;spacingRight=4;overflow=hidden;rotatable=0;points=[[0,0.5],[1,0.5]];portConstraint=eastwest;whiteSpace=wrap;html=1;" parent="xDn7OaBj2y6qqKKTSdad-13" vertex="1">
          <mxGeometry y="148" width="160" height="80" as="geometry" />
        </mxCell>
        <mxCell id="xDn7OaBj2y6qqKKTSdad-21" value="控制中心" style="swimlane;fontStyle=1;align=center;verticalAlign=top;childLayout=stackLayout;horizontal=1;startSize=26;horizontalStack=0;resizeParent=1;resizeParentMax=0;resizeLast=0;collapsible=1;marginBottom=0;whiteSpace=wrap;html=1;" parent="1" vertex="1">
          <mxGeometry x="560" y="210" width="160" height="210" as="geometry">
            <mxRectangle x="590" y="300" width="100" height="30" as="alternateBounds" />
          </mxGeometry>
        </mxCell>
        <mxCell id="xDn7OaBj2y6qqKKTSdad-22" value="compatibleFacility:List&lt;div&gt;transmitMedia:Erum&lt;/div&gt;&lt;div&gt;timeTask:List&lt;/div&gt;&lt;div&gt;drivers:List&lt;/div&gt;&lt;div&gt;model:Model&lt;/div&gt;&lt;div&gt;result:Result&lt;/div&gt;&lt;div&gt;&lt;br&gt;&lt;/div&gt;&lt;div&gt;&lt;br&gt;&lt;/div&gt;&lt;div&gt;&lt;br&gt;&lt;/div&gt;" style="text;strokeColor=none;fillColor=none;align=left;verticalAlign=top;spacingLeft=4;spacingRight=4;overflow=hidden;rotatable=0;points=[[0,0.5],[1,0.5]];portConstraint=eastwest;whiteSpace=wrap;html=1;" parent="xDn7OaBj2y6qqKKTSdad-21" vertex="1">
          <mxGeometry y="26" width="160" height="94" as="geometry" />
        </mxCell>
        <mxCell id="xDn7OaBj2y6qqKKTSdad-23" value="" style="line;strokeWidth=1;fillColor=none;align=left;verticalAlign=middle;spacingTop=-1;spacingLeft=3;spacingRight=3;rotatable=0;labelPosition=right;points=[];portConstraint=eastwest;strokeColor=inherit;" parent="xDn7OaBj2y6qqKKTSdad-21" vertex="1">
          <mxGeometry y="120" width="160" height="8" as="geometry" />
        </mxCell>
        <mxCell id="xDn7OaBj2y6qqKKTSdad-24" value="receiveMsg()&lt;div&gt;sendMsg()&lt;/div&gt;&lt;div&gt;analyse()&lt;/div&gt;&lt;div&gt;optimise()&lt;/div&gt;&lt;div&gt;control()&lt;/div&gt;&lt;div&gt;&lt;br&gt;&lt;/div&gt;" style="text;strokeColor=none;fillColor=none;align=left;verticalAlign=top;spacingLeft=4;spacingRight=4;overflow=hidden;rotatable=0;points=[[0,0.5],[1,0.5]];portConstraint=eastwest;whiteSpace=wrap;html=1;" parent="xDn7OaBj2y6qqKKTSdad-21" vertex="1">
          <mxGeometry y="128" width="160" height="82" as="geometry" />
        </mxCell>
        <mxCell id="xDn7OaBj2y6qqKKTSdad-25" value="用户界面" style="swimlane;fontStyle=1;align=center;verticalAlign=top;childLayout=stackLayout;horizontal=1;startSize=26;horizontalStack=0;resizeParent=1;resizeParentMax=0;resizeLast=0;collapsible=1;marginBottom=0;whiteSpace=wrap;html=1;" parent="1" vertex="1">
          <mxGeometry x="560" y="-80" width="160" height="240" as="geometry">
            <mxRectangle x="430" y="-3" width="100" height="30" as="alternateBounds" />
          </mxGeometry>
        </mxCell>
        <mxCell id="xDn7OaBj2y6qqKKTSdad-26" value="appId:String&lt;div&gt;appName:String&lt;/div&gt;&lt;div&gt;style:Erum&lt;/div&gt;&lt;div&gt;platform:Erum&lt;/div&gt;&lt;div&gt;UX:double&lt;/div&gt;&lt;div&gt;performance:double&lt;/div&gt;&lt;div&gt;&lt;br&gt;&lt;/div&gt;&lt;div&gt;&amp;nbsp;&lt;/div&gt;" style="text;strokeColor=none;fillColor=none;align=left;verticalAlign=top;spacingLeft=4;spacingRight=4;overflow=hidden;rotatable=0;points=[[0,0.5],[1,0.5]];portConstraint=eastwest;whiteSpace=wrap;html=1;" parent="xDn7OaBj2y6qqKKTSdad-25" vertex="1">
          <mxGeometry y="26" width="160" height="94" as="geometry" />
        </mxCell>
        <mxCell id="xDn7OaBj2y6qqKKTSdad-27" value="" style="line;strokeWidth=1;fillColor=none;align=left;verticalAlign=middle;spacingTop=-1;spacingLeft=3;spacingRight=3;rotatable=0;labelPosition=right;points=[];portConstraint=eastwest;strokeColor=inherit;" parent="xDn7OaBj2y6qqKKTSdad-25" vertex="1">
          <mxGeometry y="120" width="160" height="8" as="geometry" />
        </mxCell>
        <mxCell id="xDn7OaBj2y6qqKKTSdad-28" value="&lt;div&gt;login()&lt;/div&gt;&lt;div&gt;addFamily()&lt;/div&gt;initHabit()&lt;div&gt;retrieve()&lt;/div&gt;&lt;div&gt;control()&lt;/div&gt;&lt;div&gt;consult()&lt;/div&gt;&lt;div&gt;remark()&lt;/div&gt;" style="text;strokeColor=none;fillColor=none;align=left;verticalAlign=top;spacingLeft=4;spacingRight=4;overflow=hidden;rotatable=0;points=[[0,0.5],[1,0.5]];portConstraint=eastwest;whiteSpace=wrap;html=1;" parent="xDn7OaBj2y6qqKKTSdad-25" vertex="1">
          <mxGeometry y="128" width="160" height="112" as="geometry" />
        </mxCell>
        <mxCell id="xDn7OaBj2y6qqKKTSdad-37" value="家具公司" style="swimlane;fontStyle=1;align=center;verticalAlign=top;childLayout=stackLayout;horizontal=1;startSize=26;horizontalStack=0;resizeParent=1;resizeParentMax=0;resizeLast=0;collapsible=1;marginBottom=0;whiteSpace=wrap;html=1;" parent="1" vertex="1">
          <mxGeometry x="20" y="200" width="160" height="230" as="geometry">
            <mxRectangle x="30" y="300" width="100" height="30" as="alternateBounds" />
          </mxGeometry>
        </mxCell>
        <mxCell id="xDn7OaBj2y6qqKKTSdad-38" value="id:String&lt;div&gt;name:String&lt;/div&gt;&lt;div&gt;scale:Erum&lt;/div&gt;&lt;div&gt;address:String&lt;/div&gt;&lt;div&gt;saleAmount:double&lt;/div&gt;&lt;div&gt;product:List&lt;/div&gt;" style="text;strokeColor=none;fillColor=none;align=left;verticalAlign=top;spacingLeft=4;spacingRight=4;overflow=hidden;rotatable=0;points=[[0,0.5],[1,0.5]];portConstraint=eastwest;whiteSpace=wrap;html=1;" parent="xDn7OaBj2y6qqKKTSdad-37" vertex="1">
          <mxGeometry y="26" width="160" height="94" as="geometry" />
        </mxCell>
        <mxCell id="xDn7OaBj2y6qqKKTSdad-39" value="" style="line;strokeWidth=1;fillColor=none;align=left;verticalAlign=middle;spacingTop=-1;spacingLeft=3;spacingRight=3;rotatable=0;labelPosition=right;points=[];portConstraint=eastwest;strokeColor=inherit;" parent="xDn7OaBj2y6qqKKTSdad-37" vertex="1">
          <mxGeometry y="120" width="160" height="8" as="geometry" />
        </mxCell>
        <mxCell id="xDn7OaBj2y6qqKKTSdad-40" value="sell()&lt;div&gt;maintain()&lt;/div&gt;&lt;div&gt;design()&lt;/div&gt;&lt;div&gt;develop()&lt;/div&gt;&lt;div&gt;marketing()&lt;/div&gt;&lt;div&gt;produce()&lt;/div&gt;&lt;div&gt;&lt;br&gt;&lt;/div&gt;" style="text;strokeColor=none;fillColor=none;align=left;verticalAlign=top;spacingLeft=4;spacingRight=4;overflow=hidden;rotatable=0;points=[[0,0.5],[1,0.5]];portConstraint=eastwest;whiteSpace=wrap;html=1;" parent="xDn7OaBj2y6qqKKTSdad-37" vertex="1">
          <mxGeometry y="128" width="160" height="102" as="geometry" />
        </mxCell>
        <mxCell id="xDn7OaBj2y6qqKKTSdad-46" value="" style="endArrow=none;html=1;rounded=0;entryX=0;entryY=0.5;entryDx=0;entryDy=0;exitX=1;exitY=0.5;exitDx=0;exitDy=0;" parent="1" source="xDn7OaBj2y6qqKKTSdad-21" target="xDn7OaBj2y6qqKKTSdad-5" edge="1">
          <mxGeometry relative="1" as="geometry">
            <mxPoint x="520" y="200" as="sourcePoint" />
            <mxPoint x="680" y="200" as="targetPoint" />
          </mxGeometry>
        </mxCell>
        <mxCell id="xDn7OaBj2y6qqKKTSdad-47" value="1" style="edgeLabel;html=1;align=center;verticalAlign=middle;resizable=0;points=[];" parent="xDn7OaBj2y6qqKKTSdad-46" vertex="1" connectable="0">
          <mxGeometry x="-0.7644" relative="1" as="geometry">
            <mxPoint as="offset" />
          </mxGeometry>
        </mxCell>
        <mxCell id="xDn7OaBj2y6qqKKTSdad-48" value="n" style="edgeLabel;html=1;align=center;verticalAlign=middle;resizable=0;points=[];" parent="xDn7OaBj2y6qqKKTSdad-46" vertex="1" connectable="0">
          <mxGeometry x="0.5822" relative="1" as="geometry">
            <mxPoint as="offset" />
          </mxGeometry>
        </mxCell>
        <mxCell id="xDn7OaBj2y6qqKKTSdad-52" value="" style="endArrow=none;html=1;rounded=0;exitX=1;exitY=0.5;exitDx=0;exitDy=0;entryX=0;entryY=0.5;entryDx=0;entryDy=0;" parent="1" source="xDn7OaBj2y6qqKKTSdad-1" target="xDn7OaBj2y6qqKKTSdad-25" edge="1">
          <mxGeometry relative="1" as="geometry">
            <mxPoint x="500" y="270" as="sourcePoint" />
            <mxPoint x="660" y="270" as="targetPoint" />
          </mxGeometry>
        </mxCell>
        <mxCell id="xDn7OaBj2y6qqKKTSdad-53" value="1..n" style="edgeLabel;html=1;align=center;verticalAlign=middle;resizable=0;points=[];" parent="xDn7OaBj2y6qqKKTSdad-52" vertex="1" connectable="0">
          <mxGeometry x="-0.7067" relative="1" as="geometry">
            <mxPoint as="offset" />
          </mxGeometry>
        </mxCell>
        <mxCell id="xDn7OaBj2y6qqKKTSdad-54" value="1" style="edgeLabel;html=1;align=center;verticalAlign=middle;resizable=0;points=[];" parent="xDn7OaBj2y6qqKKTSdad-52" vertex="1" connectable="0">
          <mxGeometry x="0.5933" y="-1" relative="1" as="geometry">
            <mxPoint as="offset" />
          </mxGeometry>
        </mxCell>
        <mxCell id="xDn7OaBj2y6qqKKTSdad-67" value="智能家居" style="swimlane;fontStyle=1;align=center;verticalAlign=top;childLayout=stackLayout;horizontal=1;startSize=26;horizontalStack=0;resizeParent=1;resizeParentMax=0;resizeLast=0;collapsible=1;marginBottom=0;whiteSpace=wrap;html=1;" parent="1" vertex="1">
          <mxGeometry x="260" y="205" width="160" height="220" as="geometry">
            <mxRectangle x="260" y="300" width="100" height="30" as="alternateBounds" />
          </mxGeometry>
        </mxCell>
        <mxCell id="xDn7OaBj2y6qqKKTSdad-68" value="id:String&lt;div&gt;style:Erum&lt;/div&gt;&lt;div&gt;wifiEquipped:boolean&lt;/div&gt;&lt;div&gt;layout:Erum&lt;/div&gt;&lt;div&gt;powerConsum:double&lt;/div&gt;&lt;div&gt;facility:List&lt;/div&gt;" style="text;strokeColor=none;fillColor=none;align=left;verticalAlign=top;spacingLeft=4;spacingRight=4;overflow=hidden;rotatable=0;points=[[0,0.5],[1,0.5]];portConstraint=eastwest;whiteSpace=wrap;html=1;" parent="xDn7OaBj2y6qqKKTSdad-67" vertex="1">
          <mxGeometry y="26" width="160" height="94" as="geometry" />
        </mxCell>
        <mxCell id="xDn7OaBj2y6qqKKTSdad-69" value="" style="line;strokeWidth=1;fillColor=none;align=left;verticalAlign=middle;spacingTop=-1;spacingLeft=3;spacingRight=3;rotatable=0;labelPosition=right;points=[];portConstraint=eastwest;strokeColor=inherit;" parent="xDn7OaBj2y6qqKKTSdad-67" vertex="1">
          <mxGeometry y="120" width="160" height="8" as="geometry" />
        </mxCell>
        <mxCell id="xDn7OaBj2y6qqKKTSdad-70" value="initialize()&lt;div&gt;work()&lt;/div&gt;&lt;div&gt;record()&lt;/div&gt;&lt;div&gt;learn()&lt;/div&gt;&lt;div&gt;feedback()&lt;/div&gt;" style="text;strokeColor=none;fillColor=none;align=left;verticalAlign=top;spacingLeft=4;spacingRight=4;overflow=hidden;rotatable=0;points=[[0,0.5],[1,0.5]];portConstraint=eastwest;whiteSpace=wrap;html=1;" parent="xDn7OaBj2y6qqKKTSdad-67" vertex="1">
          <mxGeometry y="128" width="160" height="92" as="geometry" />
        </mxCell>
        <mxCell id="xDn7OaBj2y6qqKKTSdad-71" value="" style="endArrow=open;html=1;endSize=12;startArrow=diamondThin;startSize=14;startFill=0;edgeStyle=orthogonalEdgeStyle;align=left;verticalAlign=bottom;rounded=0;exitX=0.5;exitY=1;exitDx=0;exitDy=0;entryX=0.5;entryY=0;entryDx=0;entryDy=0;" parent="1" source="xDn7OaBj2y6qqKKTSdad-67" target="xDn7OaBj2y6qqKKTSdad-9" edge="1">
          <mxGeometry x="-1" y="3" relative="1" as="geometry">
            <mxPoint x="300" y="450" as="sourcePoint" />
            <mxPoint x="290" y="410" as="targetPoint" />
          </mxGeometry>
        </mxCell>
        <mxCell id="xDn7OaBj2y6qqKKTSdad-72" value="" style="endArrow=open;html=1;endSize=12;startArrow=diamondThin;startSize=14;startFill=0;edgeStyle=orthogonalEdgeStyle;align=left;verticalAlign=bottom;rounded=0;exitX=1;exitY=0.5;exitDx=0;exitDy=0;entryX=0;entryY=0.5;entryDx=0;entryDy=0;" parent="1" source="xDn7OaBj2y6qqKKTSdad-37" target="xDn7OaBj2y6qqKKTSdad-67" edge="1">
          <mxGeometry x="-1" y="3" relative="1" as="geometry">
            <mxPoint x="310" y="460" as="sourcePoint" />
            <mxPoint x="310" y="540" as="targetPoint" />
          </mxGeometry>
        </mxCell>
        <mxCell id="xDn7OaBj2y6qqKKTSdad-75" value="" style="endArrow=none;html=1;rounded=0;entryX=0;entryY=0.5;entryDx=0;entryDy=0;exitX=1;exitY=0.5;exitDx=0;exitDy=0;" parent="1" source="xDn7OaBj2y6qqKKTSdad-67" target="xDn7OaBj2y6qqKKTSdad-21" edge="1">
          <mxGeometry relative="1" as="geometry">
            <mxPoint x="340" y="310" as="sourcePoint" />
            <mxPoint x="500" y="310" as="targetPoint" />
          </mxGeometry>
        </mxCell>
        <mxCell id="xDn7OaBj2y6qqKKTSdad-76" value="1..n" style="edgeLabel;html=1;align=center;verticalAlign=middle;resizable=0;points=[];" parent="xDn7OaBj2y6qqKKTSdad-75" vertex="1" connectable="0">
          <mxGeometry x="-0.6889" y="-1" relative="1" as="geometry">
            <mxPoint as="offset" />
          </mxGeometry>
        </mxCell>
        <mxCell id="xDn7OaBj2y6qqKKTSdad-77" value="1" style="edgeLabel;html=1;align=center;verticalAlign=middle;resizable=0;points=[];" parent="xDn7OaBj2y6qqKKTSdad-75" vertex="1" connectable="0">
          <mxGeometry x="0.6111" y="1" relative="1" as="geometry">
            <mxPoint as="offset" />
          </mxGeometry>
        </mxCell>
        <mxCell id="xDn7OaBj2y6qqKKTSdad-81" value="" style="endArrow=open;endSize=12;dashed=1;html=1;rounded=0;exitX=0.5;exitY=1;exitDx=0;exitDy=0;entryX=0.5;entryY=0;entryDx=0;entryDy=0;" parent="1" source="xDn7OaBj2y6qqKKTSdad-25" target="xDn7OaBj2y6qqKKTSdad-21" edge="1">
          <mxGeometry width="160" relative="1" as="geometry">
            <mxPoint x="340" y="310" as="sourcePoint" />
            <mxPoint x="500" y="310" as="targetPoint" />
          </mxGeometry>
        </mxCell>
        <mxCell id="2Qr6fTfeoMbi5QBrvDHu-3" value="" style="endArrow=open;html=1;endSize=12;startArrow=diamondThin;startSize=14;startFill=1;edgeStyle=orthogonalEdgeStyle;align=left;verticalAlign=bottom;rounded=0;exitX=1.028;exitY=0.738;exitDx=0;exitDy=0;exitPerimeter=0;entryX=-0.017;entryY=0.824;entryDx=0;entryDy=0;entryPerimeter=0;" parent="1" source="xDn7OaBj2y6qqKKTSdad-10" target="xDn7OaBj2y6qqKKTSdad-14" edge="1">
          <mxGeometry x="-1" y="3" relative="1" as="geometry">
            <mxPoint x="430" y="660" as="sourcePoint" />
            <mxPoint x="690" y="560" as="targetPoint" />
          </mxGeometry>
        </mxCell>
        <mxCell id="6d_1rhhkW_buIz9sDe_5-1" value="温度传感器" style="swimlane;fontStyle=1;align=center;verticalAlign=top;childLayout=stackLayout;horizontal=1;startSize=26;horizontalStack=0;resizeParent=1;resizeParentMax=0;resizeLast=0;collapsible=1;marginBottom=0;whiteSpace=wrap;html=1;" vertex="1" parent="1">
          <mxGeometry x="1030" y="530" width="160" height="104" as="geometry">
            <mxRectangle x="1050" y="612" width="100" height="30" as="alternateBounds" />
          </mxGeometry>
        </mxCell>
        <mxCell id="6d_1rhhkW_buIz9sDe_5-2" value="id:String&lt;div&gt;temperature:double&lt;/div&gt;" style="text;strokeColor=none;fillColor=none;align=left;verticalAlign=top;spacingLeft=4;spacingRight=4;overflow=hidden;rotatable=0;points=[[0,0.5],[1,0.5]];portConstraint=eastwest;whiteSpace=wrap;html=1;" vertex="1" parent="6d_1rhhkW_buIz9sDe_5-1">
          <mxGeometry y="26" width="160" height="44" as="geometry" />
        </mxCell>
        <mxCell id="6d_1rhhkW_buIz9sDe_5-3" value="" style="line;strokeWidth=1;fillColor=none;align=left;verticalAlign=middle;spacingTop=-1;spacingLeft=3;spacingRight=3;rotatable=0;labelPosition=right;points=[];portConstraint=eastwest;strokeColor=inherit;" vertex="1" parent="6d_1rhhkW_buIz9sDe_5-1">
          <mxGeometry y="70" width="160" height="8" as="geometry" />
        </mxCell>
        <mxCell id="6d_1rhhkW_buIz9sDe_5-4" value="detectT()&lt;div&gt;&lt;br&gt;&lt;/div&gt;" style="text;strokeColor=none;fillColor=none;align=left;verticalAlign=top;spacingLeft=4;spacingRight=4;overflow=hidden;rotatable=0;points=[[0,0.5],[1,0.5]];portConstraint=eastwest;whiteSpace=wrap;html=1;" vertex="1" parent="6d_1rhhkW_buIz9sDe_5-1">
          <mxGeometry y="78" width="160" height="26" as="geometry" />
        </mxCell>
        <mxCell id="6d_1rhhkW_buIz9sDe_5-5" value="湿度传感器" style="swimlane;fontStyle=1;align=center;verticalAlign=top;childLayout=stackLayout;horizontal=1;startSize=26;horizontalStack=0;resizeParent=1;resizeParentMax=0;resizeLast=0;collapsible=1;marginBottom=0;whiteSpace=wrap;html=1;" vertex="1" parent="1">
          <mxGeometry x="1030" y="680" width="160" height="100" as="geometry">
            <mxRectangle x="1055" y="770" width="100" height="30" as="alternateBounds" />
          </mxGeometry>
        </mxCell>
        <mxCell id="6d_1rhhkW_buIz9sDe_5-6" value="id:String&lt;div&gt;moist:double&lt;/div&gt;" style="text;strokeColor=none;fillColor=none;align=left;verticalAlign=top;spacingLeft=4;spacingRight=4;overflow=hidden;rotatable=0;points=[[0,0.5],[1,0.5]];portConstraint=eastwest;whiteSpace=wrap;html=1;" vertex="1" parent="6d_1rhhkW_buIz9sDe_5-5">
          <mxGeometry y="26" width="160" height="44" as="geometry" />
        </mxCell>
        <mxCell id="6d_1rhhkW_buIz9sDe_5-7" value="" style="line;strokeWidth=1;fillColor=none;align=left;verticalAlign=middle;spacingTop=-1;spacingLeft=3;spacingRight=3;rotatable=0;labelPosition=right;points=[];portConstraint=eastwest;strokeColor=inherit;" vertex="1" parent="6d_1rhhkW_buIz9sDe_5-5">
          <mxGeometry y="70" width="160" height="8" as="geometry" />
        </mxCell>
        <mxCell id="6d_1rhhkW_buIz9sDe_5-8" value="detectM()" style="text;strokeColor=none;fillColor=none;align=left;verticalAlign=top;spacingLeft=4;spacingRight=4;overflow=hidden;rotatable=0;points=[[0,0.5],[1,0.5]];portConstraint=eastwest;whiteSpace=wrap;html=1;" vertex="1" parent="6d_1rhhkW_buIz9sDe_5-5">
          <mxGeometry y="78" width="160" height="22" as="geometry" />
        </mxCell>
        <mxCell id="6d_1rhhkW_buIz9sDe_5-9" value="光传感器" style="swimlane;fontStyle=1;align=center;verticalAlign=top;childLayout=stackLayout;horizontal=1;startSize=26;horizontalStack=0;resizeParent=1;resizeParentMax=0;resizeLast=0;collapsible=1;marginBottom=0;whiteSpace=wrap;html=1;" vertex="1" parent="1">
          <mxGeometry x="1020" y="830" width="160" height="104" as="geometry">
            <mxRectangle x="1060" y="920" width="90" height="30" as="alternateBounds" />
          </mxGeometry>
        </mxCell>
        <mxCell id="6d_1rhhkW_buIz9sDe_5-10" value="id:String&lt;div&gt;candela:double&lt;/div&gt;" style="text;strokeColor=none;fillColor=none;align=left;verticalAlign=top;spacingLeft=4;spacingRight=4;overflow=hidden;rotatable=0;points=[[0,0.5],[1,0.5]];portConstraint=eastwest;whiteSpace=wrap;html=1;" vertex="1" parent="6d_1rhhkW_buIz9sDe_5-9">
          <mxGeometry y="26" width="160" height="44" as="geometry" />
        </mxCell>
        <mxCell id="6d_1rhhkW_buIz9sDe_5-11" value="" style="line;strokeWidth=1;fillColor=none;align=left;verticalAlign=middle;spacingTop=-1;spacingLeft=3;spacingRight=3;rotatable=0;labelPosition=right;points=[];portConstraint=eastwest;strokeColor=inherit;" vertex="1" parent="6d_1rhhkW_buIz9sDe_5-9">
          <mxGeometry y="70" width="160" height="8" as="geometry" />
        </mxCell>
        <mxCell id="6d_1rhhkW_buIz9sDe_5-12" value="detectC()" style="text;strokeColor=none;fillColor=none;align=left;verticalAlign=top;spacingLeft=4;spacingRight=4;overflow=hidden;rotatable=0;points=[[0,0.5],[1,0.5]];portConstraint=eastwest;whiteSpace=wrap;html=1;" vertex="1" parent="6d_1rhhkW_buIz9sDe_5-9">
          <mxGeometry y="78" width="160" height="26" as="geometry" />
        </mxCell>
        <mxCell id="6d_1rhhkW_buIz9sDe_5-17" value="" style="endArrow=block;endSize=16;endFill=0;html=1;rounded=0;entryX=1;entryY=0.5;entryDx=0;entryDy=0;exitX=-0.005;exitY=0.857;exitDx=0;exitDy=0;exitPerimeter=0;" edge="1" parent="1" source="6d_1rhhkW_buIz9sDe_5-2" target="xDn7OaBj2y6qqKKTSdad-14">
          <mxGeometry width="160" relative="1" as="geometry">
            <mxPoint x="520" y="790" as="sourcePoint" />
            <mxPoint x="680" y="790" as="targetPoint" />
          </mxGeometry>
        </mxCell>
        <mxCell id="6d_1rhhkW_buIz9sDe_5-18" value="" style="endArrow=block;endSize=16;endFill=0;html=1;rounded=0;entryX=1;entryY=0.5;entryDx=0;entryDy=0;exitX=0.008;exitY=1.059;exitDx=0;exitDy=0;exitPerimeter=0;" edge="1" parent="1" source="6d_1rhhkW_buIz9sDe_5-6" target="xDn7OaBj2y6qqKKTSdad-14">
          <mxGeometry width="160" relative="1" as="geometry">
            <mxPoint x="1129" y="638" as="sourcePoint" />
            <mxPoint x="890" y="679" as="targetPoint" />
          </mxGeometry>
        </mxCell>
        <mxCell id="6d_1rhhkW_buIz9sDe_5-19" value="" style="endArrow=block;endSize=16;endFill=0;html=1;rounded=0;exitX=0;exitY=0.5;exitDx=0;exitDy=0;" edge="1" parent="1" source="6d_1rhhkW_buIz9sDe_5-9">
          <mxGeometry width="160" relative="1" as="geometry">
            <mxPoint x="1139" y="648" as="sourcePoint" />
            <mxPoint x="880" y="670" as="targetPoint" />
          </mxGeometry>
        </mxCell>
      </root>
    </mxGraphModel>
  </diagram>
</mxfile>
